<svg width="223" height="45" viewBox="0 0 223 45" fill="none" xmlns="http://www.w3.org/2000/svg">
<g clip-path="url(#clip0)">
<path d="M80.038 23.6817H64.1057C64.3148 25.4968 64.8584 26.8899 65.8202 27.8186C66.782 28.7473 68.0365 29.2117 69.6256 29.2117C72.0091 29.2117 73.5982 28.1985 74.4764 26.1301H79.4526C78.909 28.3252 77.7381 30.056 75.9818 31.3646C74.2254 32.6732 72.0928 33.3064 69.5419 33.3064C66.3638 33.3064 63.813 32.2933 61.8894 30.2248C59.9658 28.1563 58.9622 25.4546 58.9622 22.0775C58.9622 18.7004 59.924 15.9565 61.8476 13.9302C63.813 11.8618 66.3638 10.8486 69.4583 10.8486C72.6782 10.8486 75.2291 11.904 77.1108 14.0569C78.9926 16.2098 79.9544 18.9959 79.9544 22.4574V23.6817H80.038ZM64.1475 20.0513H74.8527C74.6436 18.4893 74.0582 17.2229 73.1382 16.2942C72.2182 15.3655 71.0055 14.9012 69.5001 14.9012C66.4056 14.9012 64.6493 16.6319 64.1475 20.0513Z" fill="#B2B2B2"/>
<path d="M88.4433 29.2963C85.8088 26.5102 84.4707 22.711 84.4707 18.0252C84.4707 13.2973 85.767 9.498 88.4015 6.71189C90.9941 3.92577 94.4232 2.53271 98.7303 2.53271C102.159 2.53271 105.087 3.46142 107.512 5.31883C109.937 7.17624 111.443 9.87793 112.028 13.3817H106.383C105.881 11.4398 104.961 9.96236 103.623 8.94922C102.285 7.93609 100.654 7.42953 98.6885 7.42953C96.0958 7.42953 94.005 8.35823 92.5414 10.2579C91.036 12.1153 90.2833 14.7325 90.2833 18.0252C90.2833 21.3601 91.036 23.9352 92.4996 25.7926C93.9632 27.65 96.054 28.5787 98.6885 28.5787C100.738 28.5787 102.452 27.9877 103.916 26.7635C105.379 25.5393 106.257 23.8507 106.55 21.6978H112.112C111.735 25.4549 110.314 28.3676 107.721 30.4361C105.212 32.5046 102.159 33.5177 98.6467 33.5177C94.465 33.4755 91.0778 32.0824 88.4433 29.2963Z" fill="#B2B2B2"/>
<path d="M117.381 32.8424V11.3555H122.566V32.8424H117.381ZM117.423 8.52718V3.63037H122.524V8.52718H117.423Z" fill="#B2B2B2"/>
<path d="M139.962 15.3237H135.738V26.9325C135.738 27.6079 135.906 28.1145 136.282 28.41C136.658 28.7055 137.286 28.8321 138.164 28.8321H139.92V32.8424C138.791 32.9691 137.871 33.0113 137.202 33.0113C134.902 33.0113 133.188 32.5891 132.142 31.7027C131.097 30.8162 130.553 29.4231 130.553 27.5235V15.3237H127.25V11.3133H130.553V5.10791H135.697V11.3556H139.92V15.3237H139.962Z" fill="#B2B2B2"/>
<path d="M145.064 32.8424V11.3555H150.249V32.8424H145.064ZM145.106 8.52718V3.63037H150.207V8.52718H145.106Z" fill="#B2B2B2"/>
<path d="M173.541 28.7476V32.8423H155.476V29.3808L163.881 18.7007C164.258 18.2363 164.76 17.6453 165.345 16.9277C165.93 16.2101 166.349 15.7035 166.558 15.408C165.889 15.4502 164.425 15.4502 162.167 15.4502H155.643V11.3555H172.998V14.7748L164.592 25.4549C164.216 25.9193 163.714 26.5103 163.129 27.2279C162.543 27.9455 162.125 28.4521 161.916 28.7476C162.585 28.7054 164.049 28.7054 166.307 28.7054H173.541V28.7476Z" fill="#B2B2B2"/>
<path d="M197.753 23.6817H181.821C182.03 25.4968 182.574 26.8899 183.536 27.8186C184.497 28.7473 185.752 29.2117 187.341 29.2117C189.724 29.2117 191.314 28.1985 192.192 26.1301H197.168C196.624 28.3252 195.453 30.056 193.697 31.3646C191.941 32.6732 189.808 33.3064 187.257 33.3064C184.079 33.3064 181.528 32.2933 179.605 30.2248C177.681 28.1563 176.677 25.4546 176.677 22.0775C176.677 18.7004 177.639 15.9565 179.563 13.9302C181.528 11.8618 184.079 10.8486 187.174 10.8486C190.394 10.8486 192.944 11.904 194.826 14.0569C196.708 16.2098 197.67 18.9959 197.67 22.4574V23.6817H197.753ZM181.863 20.0513H192.526C192.317 18.4893 191.732 17.2229 190.812 16.2942C189.892 15.3655 188.679 14.9012 187.174 14.9012C184.121 14.9012 182.365 16.6319 181.863 20.0513Z" fill="#B2B2B2"/>
<path d="M220.293 12.8749C221.631 14.2257 222.3 16.1254 222.3 18.616V32.8421H217.115V19.4603C217.115 16.7586 215.777 15.3655 213.1 15.3655C211.762 15.3655 210.675 15.8299 209.755 16.8008C208.835 17.7717 208.375 19.0803 208.375 20.7689V32.7999H203.19V11.3552H208.208V14.4368C209.838 12.0306 212.055 10.8486 214.857 10.8486C217.115 10.8486 218.955 11.5241 220.293 12.8749Z" fill="#B2B2B2"/>
<mask id="mask0" mask-type="alpha" maskUnits="userSpaceOnUse" x="21" y="40" width="6" height="5">
<path fill-rule="evenodd" clip-rule="evenodd" d="M26.5315 44.9928H21.8062V40.2227H26.5315V44.9928Z" fill="white"/>
</mask>
<g mask="url(#mask0)">
<path fill-rule="evenodd" clip-rule="evenodd" d="M26.535 42.6289C26.535 43.9375 25.4895 45.035 24.1932 45.035C22.8969 45.035 21.8514 43.9797 21.8514 42.6289C21.8514 41.3202 22.8969 40.2227 24.1932 40.2227C25.4477 40.2227 26.535 41.278 26.535 42.6289Z" fill="#B2B2B2"/>
</g>
<mask id="mask1" mask-type="alpha" maskUnits="userSpaceOnUse" x="0" y="11" width="5" height="6">
<path fill-rule="evenodd" clip-rule="evenodd" d="M0 16.203V11.3906H4.68352V16.203H0Z" fill="white"/>
</mask>
<g mask="url(#mask1)">
<path fill-rule="evenodd" clip-rule="evenodd" d="M4.68352 13.7968C4.68352 15.1054 3.63809 16.203 2.34176 16.203C1.04543 16.203 0 15.1054 0 13.7968C0 12.4882 1.04543 11.3906 2.34176 11.3906C3.63809 11.3906 4.68352 12.4882 4.68352 13.7968Z" fill="#B2B2B2"/>
</g>
<path fill-rule="evenodd" clip-rule="evenodd" d="M40.8972 8.94916C40.8972 10.2578 39.8518 11.3554 38.5554 11.3554C37.2591 11.3554 36.2137 10.3 36.2137 8.94916C36.2137 7.64053 37.2591 6.54297 38.5554 6.54297C39.8518 6.58518 40.8972 7.64053 40.8972 8.94916Z" fill="#B2B2B2"/>
<path d="M19.6122 12.622C16.9359 13.804 14.3433 15.4925 12.127 17.6454C9.91066 19.7983 7.98707 22.3312 6.69074 25.1595C6.06348 26.5526 5.56167 28.0301 5.39441 29.5498C5.22714 31.0272 5.31077 32.5469 5.97985 33.8556L6.23075 34.3621L6.56529 34.8265L6.73256 35.0376L6.94164 35.2486L7.318 35.6708C7.44345 35.7974 7.61072 35.9241 7.73617 36.0085C7.90344 36.1351 8.02889 36.2618 8.19616 36.3462L8.69796 36.6417L8.94886 36.8105L9.19977 36.9372C10.6216 37.6126 12.2524 37.9081 13.9251 38.0347C14.0506 38.0347 14.1342 38.1614 14.1342 38.2458C14.1342 38.3725 14.0506 38.4147 13.9251 38.4569C12.2524 38.5835 10.4961 38.4991 8.82341 37.9925L8.48888 37.9081L8.19616 37.7815L7.52708 37.486C7.318 37.4015 7.10891 37.2749 6.94164 37.1483C6.73256 37.0216 6.52347 36.9372 6.3562 36.8105L5.81258 36.3884L5.51986 36.1773L5.26895 35.9241L4.76715 35.4175L4.34898 34.8265L4.18171 34.531C4.13989 34.4466 4.05626 34.3199 4.01444 34.2355L3.6799 33.6023C3.59627 33.3912 3.51263 33.1801 3.429 32.9269C3.34537 32.7158 3.26173 32.4625 3.21991 32.2514C3.09446 31.7449 2.96901 31.2805 2.92719 30.8162C2.88538 30.5629 2.84356 30.3518 2.84356 30.0985L2.80174 29.3809C2.75992 27.5235 3.05265 25.6661 3.55445 23.9353C4.55806 20.4316 6.3562 17.2233 8.57251 14.3528C10.7888 11.4822 13.5069 8.94937 16.7269 6.96532C18.1905 6.03662 20.1559 6.50097 21.0758 7.97845C21.9958 9.45594 21.5358 11.44 20.0722 12.3687C19.905 12.4953 19.7377 12.5376 19.6122 12.622Z" fill="#B2B2B2"/>
<path d="M30.9447 24.6529C31.321 21.7402 31.2374 18.6163 30.5683 15.5769C29.8993 12.5375 28.7702 9.58255 27.0139 7.00751C26.1357 5.74109 25.1321 4.5591 23.9612 3.63039C22.7903 2.70169 21.4522 2.02627 19.9886 1.89962L19.445 1.85741L18.9013 1.89962H18.6086L18.3995 1.98405L17.8559 2.11069C17.6886 2.15291 17.5214 2.23734 17.3123 2.32176C17.145 2.40619 16.9359 2.44841 16.7687 2.53283L16.2669 2.82833L16.016 2.95497L15.7651 3.12383C14.4687 4.01032 13.3397 5.27674 12.3779 6.62758C12.2942 6.71201 12.1688 6.75422 12.0851 6.66979C12.0015 6.62758 11.9597 6.50094 12.0015 6.41651C12.796 4.89681 13.716 3.46154 15.0123 2.23734L15.2633 2.02627L15.5142 1.8152L16.0578 1.39306C16.225 1.26642 16.4341 1.13977 16.6432 1.05535C16.8523 0.928706 17.0614 0.844278 17.2705 0.717636L17.9395 0.422139L18.2741 0.295497L18.6086 0.211069L19.3195 0.0422139L20.0304 0L20.4068 0C20.5322 0 20.6577 0 20.7413 0L21.4522 0.0422139C21.7031 0.0844278 21.9122 0.126642 22.1631 0.168856C22.414 0.211069 22.6231 0.253283 22.8322 0.337711C23.2921 0.464353 23.7521 0.590994 24.1703 0.802064C24.3794 0.886492 24.5885 0.970919 24.7976 1.09756L25.4248 1.43527C27.0557 2.36398 28.4357 3.58818 29.6484 4.89681C32.0737 7.5985 33.8719 10.7645 35.1682 14.1839C36.4645 17.6032 37.1754 21.2336 37.2173 25.0328C37.2173 26.8058 35.8373 28.2411 34.1228 28.2411C32.3665 28.2411 30.9447 26.848 30.9447 25.1173C30.9447 24.9906 30.9447 24.8218 30.9447 24.6529Z" fill="#B2B2B2"/>
<path d="M14.8869 28.4099C17.1451 30.2673 19.8214 31.787 22.7486 32.8001C25.6339 33.8133 28.7702 34.362 31.8229 34.2354C33.3701 34.151 34.8755 33.8977 36.2555 33.3911C37.6355 32.8423 38.9318 32.0825 39.7681 30.9005L40.1027 30.4362L40.3536 29.9296L40.479 29.6763L40.5627 29.423L40.7299 28.8742C40.7718 28.7054 40.8136 28.4943 40.8554 28.3255C40.8972 28.1566 40.939 27.9455 40.939 27.7767L40.9808 27.1857V26.8902V26.5947C40.8972 24.9906 40.4372 23.3864 39.81 21.8667C39.7681 21.7401 39.81 21.6557 39.9354 21.5712C40.0191 21.529 40.1445 21.5712 40.1863 21.6557C41.0645 23.0909 41.7754 24.6951 42.1517 26.4681L42.2354 26.8058L42.2772 27.1435L42.319 27.8189C42.3608 28.03 42.319 28.2833 42.319 28.4943C42.319 28.7054 42.319 28.9587 42.2772 29.1697L42.1517 29.8452L42.0681 30.1829L41.9426 30.5206L41.7336 31.2382L41.399 31.8714L41.2317 32.2091C41.1899 32.2936 41.1063 32.4202 41.0227 32.5046L40.6045 33.0956C40.4372 33.2645 40.3118 33.4333 40.1445 33.6444C39.9772 33.8133 39.81 34.0243 39.6427 34.151C39.3082 34.4465 38.9318 34.7842 38.5554 35.0375C38.3464 35.1641 38.1791 35.333 37.97 35.4174L37.3846 35.7551C35.7537 36.6416 33.9974 37.2326 32.2411 37.5703C28.6866 38.2457 25.0485 38.1191 21.5359 37.4859C17.9814 36.8527 14.5106 35.544 11.2907 33.6022C9.78524 32.7157 9.32525 30.7739 10.2034 29.2542C11.0816 27.7345 13.0052 27.2701 14.5106 28.1566C14.636 28.1988 14.7615 28.3255 14.8869 28.4099Z" fill="#B2B2B2"/>
</g>
<defs>
<clipPath id="clip0">
<rect width="222.3" height="45" fill="white"/>
</clipPath>
</defs>
</svg>
